# xmcd
#
# Track frame offsets: 
#        150
#        15640
#        26535
#        38492
#        57367
#        67812
#        83037
#        99107
#        114210
#        129112
#        143960
#        158020
#        169927
#        181260
#        194335
#        207745
#        218742
#        237372
#
# Disc length: 3345 seconds
#
# Revision: 7
# Processed by: cddbd v1.5.2PL0 Copyright (c) Steve Scherf et al.
# Submitted via: ExactAudioCopyFreeDBPlugin 1.0
#
DISCID=e50d0f12
DTITLE=Kenny Rogers - The Country Collection
DYEAR=1996
DGENRE=Country
TTITLE0=For The Good Times
TTITLE1=She Even Woke Me Up To Say Goodbye
TTITLE2=Me And Bobby McGee
TTITLE3=The King Of Oak Street
TTITLE4=Ticket To Nowhere
TTITLE5=Tell It All Brother
TTITLE6=The Way It Used To Be
TTITLE7=Just Dropped In To See What Condition My Condition Is In
TTITLE8=Heed The Call
TTITLE9=Church Without A Name
TTITLE10=But I Know I Love You
TTITLE11=Poem For My Little Lady
TTITLE12=Hurry Up Love
TTITLE13=Run Through Your Mind
TTITLE14=Sleep Comes Easy
TTITLE15=Always Leaving Always Gone
TTITLE16=I Believe In Music
TTITLE17=Ruby, Don't Take Your Love To Town
EXTD=Release year: 1996\nRelease country: UK\nRelease label: Prism\nRe
EXTD=lease catalog#: PLATCD 122\nBarcode: 5014293612227
EXTT0=
EXTT1=
EXTT2=
EXTT3=
EXTT4=
EXTT5=
EXTT6=
EXTT7=
EXTT8=
EXTT9=
EXTT10=
EXTT11=
EXTT12=
EXTT13=
EXTT14=
EXTT15=
EXTT16=
EXTT17=
PLAYORDER=
